<svg width="321" height="46" viewBox="0 0 321 46" fill="none" xmlns="http://www.w3.org/2000/svg">
<g filter="url(#filter0_d_0_760)">
<path fill-rule="evenodd" clip-rule="evenodd" d="M240.065 9.85704C196.36 6.08905 183.848 5.18085 159.509 4.01086C134.287 2.79837 116.203 2.28073 87.4615 1.9486C80.7986 1.8716 73.671 1.72057 65.3214 1.47929C34.6495 0.592914 28.6666 0.56901 18.6533 1.2921C13.692 1.65055 9.41525 1.81687 7.03433 1.74441C4.91753 1.67981 4.52774 1.73056 4.49436 2.07493C4.46486 2.37926 7.80297 2.97196 9.65828 2.99169C10.3231 2.99896 12.123 3.03323 13.6582 3.06826C15.1933 3.1031 18.5769 3.12526 21.1772 3.11744C27.3005 3.09876 30.2308 3.18976 40.6996 3.72361C58.2988 4.6211 71.6096 5.13447 87.9808 5.54718C94.014 5.6992 102.025 5.90113 105.782 5.99581C134.281 6.71372 169.027 8.25864 190.206 9.74977C215.907 11.5589 295.549 18.6756 294.157 19.0384C293.605 19.1823 284.358 19.7538 278.824 19.9861C273.742 20.1995 265.266 20.3963 254.848 20.5427C249.908 20.6124 243.127 20.7141 239.779 20.769C227.203 20.9754 223.063 21.0162 215.931 21.0048C183.072 20.9522 161.303 21.5718 130.909 23.4244C112.842 24.5254 97.944 26.3558 81.2086 29.5305C71.6937 31.3355 70.7456 31.728 71.4877 33.5557C71.9707 34.7449 76.6252 35.3442 86.1211 35.4394C103.475 35.6138 119.758 36.0227 135.508 36.6798C145.386 37.092 146.697 37.1275 156.769 37.2572C160.531 37.3058 167.026 37.4731 171.202 37.6295L178.795 37.9137L168.778 36.7648C153.599 35.0236 137.287 33.4588 131.888 33.2261C114.012 32.4556 104.268 32.2516 88.3138 32.3139C84.5111 32.3288 81.3071 32.299 81.1936 32.2478C80.0996 31.7526 105.989 28.3813 118.278 27.4189C146.017 25.2461 174.45 24.3748 218.017 24.3621C221.996 24.361 229.989 24.2895 235.781 24.2036C241.572 24.1174 250.7 23.9828 256.066 23.9042C276.719 23.6018 282.889 23.3415 302.847 21.9311C315.629 21.0276 315.698 21.016 316.176 19.6533C316.702 18.1552 315.762 17.3611 312.895 16.8823C310.171 16.4272 258.83 11.4748 240.065 9.85704ZM179.624 37.8378C179.858 37.9075 180.202 37.9391 180.389 37.908C180.577 37.8769 180.386 37.8197 179.965 37.7811C179.544 37.7425 179.391 37.7681 179.624 37.8378Z" fill="white"/>
</g>
<defs>
<filter id="filter0_d_0_760" x="0.494141" y="0.779541" width="319.821" height="45.1404" filterUnits="userSpaceOnUse" color-interpolation-filters="sRGB">
<feFlood flood-opacity="0" result="BackgroundImageFix"/>
<feColorMatrix in="SourceAlpha" type="matrix" values="0 0 0 0 0 0 0 0 0 0 0 0 0 0 0 0 0 0 127 0" result="hardAlpha"/>
<feOffset dy="4"/>
<feGaussianBlur stdDeviation="2"/>
<feComposite in2="hardAlpha" operator="out"/>
<feColorMatrix type="matrix" values="0 0 0 0 0 0 0 0 0 0 0 0 0 0 0 0 0 0 0.25 0"/>
<feBlend mode="normal" in2="BackgroundImageFix" result="effect1_dropShadow_0_760"/>
<feBlend mode="normal" in="SourceGraphic" in2="effect1_dropShadow_0_760" result="shape"/>
</filter>
</defs>
</svg>
